{
  "accessors": [
    {
      "bufferView": 2,
      "componentType": 5126,
      "count": 256,
      "max": [
        23.920669555664063,
        2.9344871044158936,
        3.616626501083374
      ],
      "min": [
        -5.972872734069824,
        -2.8166451454162598,
        -3.6166274547576904
      ],
      "type": "VEC3"
    },
    {
      "bufferView": 2,
      "byteOffset": 3072,
      "componentType": 5126,
      "count": 256,
      "max": [
        0.9993587732315063,
        -0.03580727055668831,
        0.9993587136268616
      ],
      "min": [
        -0.9993587732315063,
        -0.5964599847793579,
        -0.9993587136268616
      ],
      "type": "VEC3"
    },
    {
      "bufferView": 1,
      "componentType": 5126,
      "count": 256,
      "max": [
        0.8233377933502197,
        0.9902653694152832
      ],
      "min": [
        0.6577775478363037,
        0.8247050642967224
      ],
      "type": "VEC2"
    },
    {
      "bufferView": 0,
      "componentType": 5125,
      "count": 1344,
      "type": "SCALAR"
    },
    {
      "bufferView": 2,
      "byteOffset": 6144,
      "componentType": 5126,
      "count": 17471,
      "max": [
        13.810379028320313,
        22.849220275878906,
        4.623836040496826
      ],
      "min": [
        -17.534137725830078,
        -22.641159057617188,
        -4.65971565246582
      ],
      "type": "VEC3"
    },
    {
      "bufferView": 2,
      "byteOffset": 215796,
      "componentType": 5126,
      "count": 17471,
      "max": [
        0.9999996423721313,
        1.0,
        1.0
      ],
      "min": [
        -0.9999995827674866,
        -1.0,
        -1.0
      ],
      "type": "VEC3"
    },
    {
      "bufferView": 3,
      "componentType": 5126,
      "count": 17471,
      "max": [
        1.0,
        0.99722820520401,
        1.0,
        1.0
      ],
      "min": [
        -1.0,
        -0.9999910593032837,
        -1.0,
        -1.0
      ],
      "type": "VEC4"
    },
    {
      "bufferView": 1,
      "byteOffset": 2048,
      "componentType": 5126,
      "count": 17471,
      "max": [
        0.9994999766349792,
        0.995842695236206
      ],
      "min": [
        0.0005000000237487257,
        0.0005000000237487257
      ],
      "type": "VEC2"
    },
    {
      "bufferView": 0,
      "byteOffset": 5376,
      "componentType": 5125,
      "count": 67620,
      "type": "SCALAR"
    }
  ],
  "asset": {
    "extras": {
      "author": "thatguyjay (https://sketchfab.com/thatguyjay)",
      "license": "CC-BY-NC-ND-4.0 (http://creativecommons.org/licenses/by-nc-nd/4.0/)",
      "source": "https://sketchfab.com/3d-models/lamp-post-2b6c56b1c93e4047998c0cccd3350f3f",
      "title": "Lamp Post"
    },
    "generator": "Sketchfab-12.65.0",
    "version": "2.0"
  },
  "bufferViews": [
    {
      "buffer": 0,
      "byteLength": 275856,
      "name": "floatBufferViews",
      "target": 34963
    },
    {
      "buffer": 0,
      "byteLength": 141816,
      "byteOffset": 275856,
      "byteStride": 8,
      "name": "floatBufferViews",
      "target": 34962
    },
    {
      "buffer": 0,
      "byteLength": 425448,
      "byteOffset": 417672,
      "byteStride": 12,
      "name": "floatBufferViews",
      "target": 34962
    },
    {
      "buffer": 0,
      "byteLength": 279536,
      "byteOffset": 843120,
      "byteStride": 16,
      "name": "floatBufferViews",
      "target": 34962
    }
  ],
  "buffers": [
    {
      "byteLength": 1122656,
      "uri": "scene.bin"
    }
  ],
  "images": [
    {
      "uri": "textures/Material_48_emissive.png"
    },
    {
      "uri": "textures/Metal_M_baseColor.png"
    },
    {
      "uri": "textures/Metal_M_metallicRoughness.png"
    },
    {
      "uri": "textures/Metal_M_normal.png"
    }
  ],
  "materials": [
    {
      "doubleSided": true,
      "emissiveFactor": [
        1.0,
        1.0,
        1.0
      ],
      "emissiveTexture": {
        "index": 0
      },
      "name": "Material_48",
      "pbrMetallicRoughness": {
        "metallicFactor": 0.0,
        "roughnessFactor": 0.3074242332
      }
    },
    {
      "doubleSided": true,
      "name": "Metal_M",
      "normalTexture": {
        "index": 3
      },
      "pbrMetallicRoughness": {
        "baseColorTexture": {
          "index": 1
        },
        "metallicRoughnessTexture": {
          "index": 2
        }
      }
    }
  ],
  "meshes": [
    {
      "name": "Inners_Material #48_0",
      "primitives": [
        {
          "attributes": {
            "NORMAL": 1,
            "POSITION": 0,
            "TEXCOORD_0": 2
          },
          "indices": 3,
          "material": 0,
          "mode": 4
        }
      ]
    },
    {
      "name": "Post_Metal_M_0",
      "primitives": [
        {
          "attributes": {
            "NORMAL": 5,
            "POSITION": 4,
            "TANGENT": 6,
            "TEXCOORD_0": 7
          },
          "indices": 8,
          "material": 1,
          "mode": 4
        }
      ]
    }
  ],
  "nodes": [
    {
      "children": [
        1
      ],
      "matrix": [
        1.0,
        0.0,
        0.0,
        0.0,
        0.0,
        2.220446049250313e-16,
        -1.0,
        0.0,
        0.0,
        1.0,
        2.220446049250313e-16,
        0.0,
        0.0,
        0.0,
        0.0,
        1.0
      ],
      "name": "Sketchfab_model"
    },
    {
      "children": [
        2
      ],
      "matrix": [
        1.0,
        0.0,
        0.0,
        0.0,
        0.0,
        0.0,
        1.0,
        0.0,
        0.0,
        -1.0,
        0.0,
        0.0,
        0.0,
        0.0,
        0.0,
        1.0
      ],
      "name": "9420f9b9e0b54b77ba60d1412703b055.fbx"
    },
    {
      "children": [
        3,
        6
      ],
      "name": "RootNode"
    },
    {
      "children": [
        4
      ],
      "matrix": [
        0.9725472927093506,
        0.0,
        0.0,
        0.0,
        0.0,
        0.9999999999999867,
        1.629206882736149e-07,
        0.0,
        0.0,
        -1.5844807430684821e-07,
        0.9725472927093376,
        0.0,
        -11.069454193115234,
        79.04997253417969,
        2.985820174217224e-06,
        1.0
      ],
      "name": "Inners"
    },
    {
      "children": [
        5
      ],
      "matrix": [
        1.0,
        0.0,
        -0.0,
        0.0,
        0.0,
        1.0,
        0.0,
        0.0,
        0.0,
        0.0,
        1.0,
        0.0,
        2.356247901916504,
        -0.058929443359375,
        4.768373855768004e-07,
        1.0
      ],
      "name": "Object_4"
    },
    {
      "mesh": 0,
      "name": "Inners_Material #48_0"
    },
    {
      "children": [
        7
      ],
      "matrix": [
        1.0,
        0.0,
        0.0,
        0.0,
        0.0,
        0.9999999403953419,
        1.6292067079122444e-07,
        0.0,
        0.0,
        -1.6292067079122444e-07,
        0.9999999403953419,
        0.0,
        0.0,
        50.07204818725586,
        7.081776857376099e-06,
        1.0
      ],
      "name": "Post"
    },
    {
      "children": [
        8
      ],
      "matrix": [
        1.0,
        0.0,
        -0.0,
        0.0,
        0.0,
        2.049565553665161,
        0.0,
        0.0,
        0.0,
        0.0,
        1.0,
        0.0,
        1.825413703918457,
        -3.7212796211242676,
        -5.424022674560547e-06,
        1.0
      ],
      "name": "Object_7"
    },
    {
      "mesh": 1,
      "name": "Post_Metal_M_0"
    }
  ],
  "samplers": [
    {
      "magFilter": 9729,
      "minFilter": 9987,
      "wrapS": 10497,
      "wrapT": 10497
    }
  ],
  "scene": 0,
  "scenes": [
    {
      "name": "Sketchfab_Scene",
      "nodes": [
        0
      ]
    }
  ],
  "textures": [
    {
      "sampler": 0,
      "source": 0
    },
    {
      "sampler": 0,
      "source": 1
    },
    {
      "sampler": 0,
      "source": 2
    },
    {
      "sampler": 0,
      "source": 3
    }
  ]
}
